<svg version="1.1" xmlns="http://www.w3.org/2000/svg" viewBox="0 0 140 100">
<g transform="translate(-471, -491)">
<path fill="#F87F92" opacity="1.000000" stroke="none" 
	d="
M585.973022,499.104126 
	C587.373413,503.473785 589.487732,507.538330 589.561890,511.639740 
	C589.917358,531.288330 589.782410,550.947144 589.696777,570.601807 
	C589.644409,582.623535 582.379883,589.743347 570.265869,589.773132 
	C550.777527,589.820984 531.288940,589.819824 511.800568,589.773804 
	C499.449219,589.744690 492.331360,582.608215 492.293884,570.177734 
	C492.235077,550.689453 492.226471,531.200684 492.291565,511.712463 
	C492.333038,499.296814 499.438049,492.253235 511.869354,492.225403 
	C531.357727,492.181763 550.846558,492.274658 570.334534,492.178802 
	C576.525574,492.148376 581.783142,493.875305 585.973022,499.104126 
M526.979431,509.051178 
	C526.683411,505.967499 524.742126,504.131989 522.003784,505.187164 
	C520.526794,505.756287 519.144043,508.479492 519.026123,510.314880 
	C518.642700,516.281372 519.011536,522.293640 518.729004,528.271118 
	C518.669617,529.526855 517.068787,530.709717 516.178284,531.926147 
	C515.400024,530.669983 514.004211,529.440125 513.949463,528.153198 
	C513.702209,522.339417 513.903992,516.508301 513.800964,510.685944 
	C513.748657,507.730804 513.298584,504.810822 509.263245,504.950317 
	C505.542603,505.078918 505.216797,507.879578 505.168579,510.614685 
	C505.068909,516.270630 505.132721,521.929565 505.132782,527.587280 
	C505.132965,539.421326 505.723755,540.068787 517.419006,541.142883 
	C517.720459,541.170593 518.003418,541.398926 518.664368,541.704468 
	C518.731689,543.135193 518.869751,544.757996 518.874023,546.381165 
	C518.896606,555.034180 518.881714,563.687134 518.888611,572.340149 
	C518.890808,575.065552 518.710815,578.014587 522.689819,577.966370 
	C526.617981,577.918884 527.052002,575.179871 527.009888,572.080933 
	C526.953430,567.921570 526.996155,563.760925 526.996216,559.600830 
	C526.996277,553.509094 526.996277,547.417358 526.996277,541.263550 
	C528.703430,541.148193 529.684937,541.043945 530.668335,541.021484 
	C538.291748,540.847534 540.074646,539.081177 540.088745,531.595337 
	C540.102173,524.440002 540.076355,517.284607 540.095215,510.129333 
	C540.102234,507.471191 539.972717,505.012451 536.363098,504.919891 
	C532.644897,504.824554 531.989624,507.164337 531.998352,510.149078 
	C532.014893,515.806763 532.174927,521.473267 531.891418,527.116821 
	C531.809021,528.757690 530.422363,530.333069 529.633545,531.938477 
	C528.754578,530.268494 527.215759,528.636353 527.117676,526.921692 
	C526.795044,521.282349 526.994629,515.613159 526.979431,509.051178 
M572.505920,578.013123 
	C576.439087,577.860046 576.884766,575.123535 576.885254,572.077820 
	C576.888428,551.586548 576.966309,531.094360 576.754089,510.605316 
	C576.734192,508.683868 575.309509,505.887421 573.743408,505.122772 
	C572.190308,504.364532 569.258301,505.076324 567.578064,506.153046 
	C557.036865,512.908264 551.373901,523.153381 548.442810,534.942688 
	C546.380127,543.239319 551.634766,551.107239 559.889526,553.101013 
	C561.506226,553.491516 563.101807,553.987061 564.733521,554.294006 
	C567.223267,554.762390 568.338806,555.966125 568.199402,558.698608 
	C567.970459,563.184937 567.780762,567.733887 568.302490,572.170837 
	C568.542664,574.213196 570.505554,576.052979 572.505920,578.013123 
z"/>
<path fill="#FFFFFF" opacity="1.000000" stroke="none" 
	d="
M526.986450,509.503296 
	C526.994629,515.613159 526.795044,521.282349 527.117676,526.921692 
	C527.215759,528.636353 528.754578,530.268494 529.633545,531.938477 
	C530.422363,530.333069 531.809021,528.757690 531.891418,527.116821 
	C532.174927,521.473267 532.014893,515.806763 531.998352,510.149078 
	C531.989624,507.164337 532.644897,504.824554 536.363098,504.919891 
	C539.972717,505.012451 540.102234,507.471191 540.095215,510.129333 
	C540.076355,517.284607 540.102173,524.440002 540.088745,531.595337 
	C540.074646,539.081177 538.291748,540.847534 530.668335,541.021484 
	C529.684937,541.043945 528.703430,541.148193 526.996277,541.263550 
	C526.996277,547.417358 526.996277,553.509094 526.996216,559.600830 
	C526.996155,563.760925 526.953430,567.921570 527.009888,572.080933 
	C527.052002,575.179871 526.617981,577.918884 522.689819,577.966370 
	C518.710815,578.014587 518.890808,575.065552 518.888611,572.340149 
	C518.881714,563.687134 518.896606,555.034180 518.874023,546.381165 
	C518.869751,544.757996 518.731689,543.135193 518.664368,541.704468 
	C518.003418,541.398926 517.720459,541.170593 517.419006,541.142883 
	C505.723755,540.068787 505.132965,539.421326 505.132782,527.587280 
	C505.132721,521.929565 505.068909,516.270630 505.168579,510.614685 
	C505.216797,507.879578 505.542603,505.078918 509.263245,504.950317 
	C513.298584,504.810822 513.748657,507.730804 513.800964,510.685944 
	C513.903992,516.508301 513.702209,522.339417 513.949463,528.153198 
	C514.004211,529.440125 515.400024,530.669983 516.178284,531.926147 
	C517.068787,530.709717 518.669617,529.526855 518.729004,528.271118 
	C519.011536,522.293640 518.642700,516.281372 519.026123,510.314880 
	C519.144043,508.479492 520.526794,505.756287 522.003784,505.187164 
	C524.742126,504.131989 526.683411,505.967499 526.986450,509.503296 
z"/>
<path fill="#FFF9FA" opacity="1.000000" stroke="none" 
	d="
M572.096558,577.998901 
	C570.505554,576.052979 568.542664,574.213196 568.302490,572.170837 
	C567.780762,567.733887 567.970459,563.184937 568.199402,558.698608 
	C568.338806,555.966125 567.223267,554.762390 564.733521,554.294006 
	C563.101807,553.987061 561.506226,553.491516 559.889526,553.101013 
	C551.634766,551.107239 546.380127,543.239319 548.442810,534.942688 
	C551.373901,523.153381 557.036865,512.908264 567.578064,506.153046 
	C569.258301,505.076324 572.190308,504.364532 573.743408,505.122772 
	C575.309509,505.887421 576.734192,508.683868 576.754089,510.605316 
	C576.966309,531.094360 576.888428,551.586548 576.885254,572.077820 
	C576.884766,575.123535 576.439087,577.860046 572.096558,577.998901 
M556.234619,536.714050 
	C556.762024,544.070679 560.243103,546.736389 567.766418,545.489136 
	C567.766418,535.829834 567.766418,526.164001 567.766418,515.450989 
	C561.543884,521.747192 558.237549,528.423096 556.234619,536.714050 
z"/>
<path fill="#F87F92" opacity="1.000000" stroke="none" 
	d="
M556.334839,536.330444 
	C558.237549,528.423096 561.543884,521.747192 567.766418,515.450989 
	C567.766418,526.164001 567.766418,535.829834 567.766418,545.489136 
	C560.243103,546.736389 556.762024,544.070679 556.334839,536.330444 
z"/>
</g>
</svg>
